<?xml version="1.0" encoding="UTF-8"?>
<svg
    id="icon"
    width="32"
    height="32"
    xmlns="http://www.w3.org/2000/svg"
    viewBox="0 0 220 220"
    className="text-foreground"
>
    <g fill="black">
        <path
            transform="translate(25, 12)"
            d="m83.965 165.891-57.614-33.263a2.34 2.34 0 0 1-1.16-2.011V79.254c0-.89.967-1.451 1.74-1.005l8.493 3.324c.928.541 2.49.126 2.49-.957V56.871c0-1.005.085-1.22-.766-1.723L14.037 41.68a2.3 2.3 0 0 0-2.34 0L1.16 47.771A2.34 2.34 0 0 0 0 49.783v95.474c0 .832.445 1.605 1.16 2.011l82.65 47.727a2.3 2.3 0 0 0 2.34 0l69.406-40.088a1.397 1.397 0 0 0 0-2.417l-21.653-12.512a2.8 2.8 0 0 0-2.804 0l-44.815 25.875a2.3 2.3 0 0 1-2.34 0zm84.913-117.982L86.186.318a2.31 2.31 0 0 0-2.34 0L40.142 25.483a1.391 1.391 0 0 0 0 2.41l21.466 12.36c.87.501 1.934.501 2.804 0l19.571-11.261a2.31 2.31 0 0 1 2.34 0l57.628 33.167a2.33 2.33 0 0 1 1.16 2.006v51.486c0 1.003.541 1.909 1.392 2.41l21.427 12.341c.928.54 2.108-.135 2.108-1.215V49.934a2.31 2.31 0 0 0-1.16-2.006v-.02Z"
        />
        <path
            transform="translate(25, 12)"
            d="M108.002 89.264h8.018c.068 0 .886.8.752 1.066l-.018 33.561c-.059.377-.21.588-.493.829-.432.367-5.014 3.043-5.444 3.153l-51.178.082c-.613-.075-5.274-2.738-5.858-3.236-.154-.131-.297-.258-.379-.448-.232-11.415-.156-22.92-.038-34.344.114-.115.612-.664.658-.664h8.018c.128-3.858-.249-7.799.186-11.635 2.259-19.926 27.416-27.159 40.405-12.174 6.018 6.943 5.508 15.12 5.371 23.81m-9.755 0V78.931c0-.951-.921-3.487-1.37-4.416-4.655-9.633-18.473-9.88-23.457-.406-.427.811-1.46 3.344-1.46 4.161v10.995h26.288Zm-7.936 9.424H79.73v10.25h2.976v8.928h4.63v-8.928h2.976z"
        />
    </g>
</svg>